<svg xmlns="http://www.w3.org/2000/svg" version="1.1" xmlns:xlink="http://www.w3.org/1999/xlink" xmlns:svgjs="http://svgjs.dev/svgjs" width="1000" height="1000" viewBox="0 0 1000 1000"><rect width="1000" height="1000" fill="#3e1b56"></rect><g transform="matrix(0.7,0,0,0.7,149.57575757575756,430.5181622918055)"><svg viewBox="0 0 396 79" data-background-color="#3e1b56" preserveAspectRatio="xMidYMid meet" height="199" width="1000" xmlns="http://www.w3.org/2000/svg" xmlns:xlink="http://www.w3.org/1999/xlink"><g id="tight-bounds" transform="matrix(1,0,0,1,0.2400000000000091,-0.09536842105262622)"><svg viewBox="0 0 395.52 79.19073684210527" height="79.19073684210527" width="395.52"><g><svg viewBox="0 0 395.52 79.19073684210527" height="79.19073684210527" width="395.52"><g><svg viewBox="0 0 395.52 79.19073684210527" height="79.19073684210527" width="395.52"><g><svg viewBox="0 0 395.52 79.19073684210527" height="79.19073684210527" width="395.52"><g><svg viewBox="0 0 395.52 79.19073684210527" height="79.19073684210527" width="395.52"><g><svg viewBox="0 0 395.52 79.19073684210527" height="79.19073684210527" width="395.52"><g transform="matrix(1,0,0,1,0,0)"><svg width="395.52" viewBox="0 -29.5 227.98 45.65" height="79.19073684210527" data-palette-color="#f5eafb"><path d="M1.5 0L0 0 0-29.5 1.5-29.5 1.5 0ZM4.5 0L3 0 3-29.5 4.5-29.5 4.5 0ZM10.5 0L6 0 6-29.5 10.5-29.5 10.5 0ZM18 0L16.5 0 16.5-29.5 18-29.5 18 0ZM24 0L19.5 0 19.5-29.5 24-29.5 24 0ZM9.1 15.95L9.1 4.35 11.8 4.35Q13.25 4.35 14.05 4.75L14.05 4.75Q14.9 5.15 15.5 5.95L15.5 5.95Q16.65 7.45 16.65 10.2L16.65 10.2Q16.55 13.05 15.35 14.5L15.35 14.5Q14.15 16 11.6 15.95L11.6 15.95 9.1 15.95ZM10.35 14.95L11.5 14.95Q15.35 14.95 15.35 10.3L15.35 10.3Q15.35 7.95 14.5 6.7L14.5 6.7Q13.6 5.45 11.7 5.45L11.7 5.45 10.35 5.45 10.35 14.95ZM30 0L25.5 0 25.5-29.5 30-29.5 30 0ZM33 0L31.5 0 31.5-29.5 33-29.5 33 0ZM39 0L34.5 0 34.5-29.5 39-29.5 39 0ZM46.5 0L45 0 45-29.5 46.5-29.5 46.5 0ZM49.5 0L48 0 48-29.5 49.5-29.5 49.5 0ZM34.7 15.95L34.7 4.35 41.8 4.35 41.8 5.5 35.9 5.5 35.9 9.3 40.8 9.3 40.8 10.5 35.9 10.5 35.9 14.8 41.75 14.8 41.75 15.95 34.7 15.95ZM52.5 0L51 0 51-29.5 52.5-29.5 52.5 0ZM63 0L58.5 0 58.5-29.5 63-29.5 63 0ZM66 0L64.5 0 64.5-29.5 66-29.5 66 0ZM69 0L67.5 0 67.5-29.5 69-29.5 69 0ZM75 0L70.5 0 70.5-29.5 75-29.5 75 0ZM63.5 16L59.55 4.35 60.9 4.35 63.9 13.25 66.7 4.35 68 4.35 64.09 16 63.5 16ZM77.99 0L76.49 0 76.49-29.5 77.99-29.5 77.99 0ZM83.99 0L79.49 0 79.49-29.5 83.99-29.5 83.99 0ZM89.99 0L85.49 0 85.49-29.5 89.99-29.5 89.99 0ZM97.49 0L95.99 0 95.99-29.5 97.49-29.5 97.49 0ZM100.49 0L98.99 0 98.99-29.5 100.49-29.5 100.49 0ZM86.04 15.95L86.04 4.35 92.69 4.35 92.69 5.5 87.34 5.5 87.34 9.15 91.69 9.15 91.69 10.25 87.34 10.25 87.34 15.95 86.04 15.95ZM103.49 0L101.99 0 101.99-29.5 103.49-29.5 103.49 0ZM109.49 0L104.99 0 104.99-29.5 109.49-29.5 109.49 0ZM112.49 0L110.99 0 110.99-29.5 112.49-29.5 112.49 0ZM115.49 0L113.99 0 113.99-29.5 115.49-29.5 115.49 0ZM125.99 0L121.49 0 121.49-29.5 125.99-29.5 125.99 0ZM111.34 15.95L111.34 4.35 112.84 4.35 112.84 4.5Q112.74 4.6 112.69 4.75L112.69 4.75Q112.69 4.85 112.69 5.2L112.69 5.2 112.69 14.85 118.24 14.85 118.24 15.95 111.34 15.95ZM128.99 0L127.49 0 127.49-29.5 128.99-29.5 128.99 0ZM134.99 0L130.49 0 130.49-29.5 134.99-29.5 134.99 0ZM137.99 0L136.49 0 136.49-29.5 137.99-29.5 137.99 0ZM148.49 0L143.99 0 143.99-29.5 148.49-29.5 148.49 0ZM151.49 0L149.99 0 149.99-29.5 151.49-29.5 151.49 0ZM137.09 15.95L137.09 14.85 139.39 14.85 139.39 5.45 137.24 5.45 137.24 4.35 142.99 4.35 142.99 5.45 140.69 5.45 140.69 14.85 143.09 14.85 143.09 15.95 137.09 15.95ZM157.49 0L152.99 0 152.99-29.5 157.49-29.5 157.49 0ZM163.49 0L158.99 0 158.99-29.5 163.49-29.5 163.49 0ZM166.49 0L164.99 0 164.99-29.5 166.49-29.5 166.49 0ZM173.99 0L172.49 0 172.49-29.5 173.99-29.5 173.99 0ZM176.99 0L175.49 0 175.49-29.5 176.99-29.5 176.99 0ZM166.39 16.15L166.39 16.15Q165.09 16.15 164.09 15.5L164.09 15.5Q163.04 14.85 162.44 13.55L162.44 13.55Q161.84 12.2 161.84 10.2L161.84 10.2Q161.84 8.1 162.49 6.75L162.49 6.75Q163.14 5.45 164.14 4.85L164.14 4.85Q165.14 4.3 166.29 4.3L166.29 4.3Q167.54 4.3 168.44 4.9L168.44 4.9Q169.34 5.5 169.79 6.55L169.79 6.55 168.69 7.1 168.54 7.15 168.49 7.05 168.49 6.9Q168.49 6.7 168.24 6.35L168.24 6.35Q167.84 5.8 167.34 5.55L167.34 5.55Q166.84 5.3 166.29 5.3L166.29 5.3Q164.79 5.3 163.94 6.6L163.94 6.6Q163.14 7.85 163.14 10.15L163.14 10.15Q163.14 11.55 163.54 12.7L163.54 12.7Q163.99 13.8 164.69 14.4L164.69 14.4Q165.44 15 166.34 15L166.34 15Q167.04 15 167.64 14.65L167.64 14.65Q168.29 14.25 168.69 13.6L168.69 13.6 169.64 14.25Q169.04 15.2 168.29 15.65L168.29 15.65Q167.49 16.15 166.39 16.15ZM182.98 0L178.48 0 178.48-29.5 182.98-29.5 182.98 0ZM185.98 0L184.48 0 184.48-29.5 185.98-29.5 185.98 0ZM188.98 0L187.48 0 187.48-29.5 188.98-29.5 188.98 0ZM191.98 0L190.48 0 190.48-29.5 191.98-29.5 191.98 0ZM202.48 0L197.98 0 197.98-29.5 202.48-29.5 202.48 0ZM193.68 16L189.68 10.15 188.73 11.15 188.73 15.95 187.38 15.95 187.38 4.35 188.93 4.35 188.93 4.5Q188.83 4.6 188.78 4.75L188.78 4.75Q188.73 4.85 188.73 5.2L188.73 5.2 188.73 9.7 193.58 4.3Q194.03 4.35 194.53 4.35L194.53 4.35 195.03 4.35 190.63 9.35 195.33 15.95 193.68 16ZM205.48 0L203.98 0 203.98-29.5 205.48-29.5 205.48 0ZM211.48 0L206.98 0 206.98-29.5 211.48-29.5 211.48 0ZM214.48 0L212.98 0 212.98-29.5 214.48-29.5 214.48 0ZM220.48 0L215.98 0 215.98-29.5 220.48-29.5 220.48 0ZM227.98 0L226.48 0 226.48-29.5 227.98-29.5 227.98 0ZM216.68 16.15L216.68 16.15Q214.43 16.15 213.03 14.65L213.03 14.65 213.73 13.5 213.78 13.35 213.93 13.4Q213.93 13.45 213.98 13.6L213.98 13.6Q213.98 13.7 214.08 13.85L214.08 13.85Q214.13 13.95 214.28 14.05L214.28 14.05Q215.33 14.95 216.88 14.95L216.88 14.95Q217.88 14.95 218.58 14.4L218.58 14.4Q219.28 13.8 219.28 13L219.28 13Q219.28 12.45 219.03 12.05L219.03 12.05Q218.83 11.7 218.28 11.35L218.28 11.35Q217.73 11 216.58 10.5L216.58 10.5Q214.88 9.85 214.13 9L214.13 9Q213.43 8.15 213.43 7.1L213.43 7.1Q213.43 5.8 214.38 5L214.38 5Q215.33 4.2 216.93 4.2L216.93 4.2Q217.88 4.2 218.73 4.6L218.73 4.6Q219.53 5 220.18 5.65L220.18 5.65 219.33 6.8 219.23 6.7Q219.23 6.65 219.18 6.55L219.18 6.55Q219.18 6.4 219.08 6.3L219.08 6.3Q219.03 6.15 218.88 6.05L218.88 6.05Q218.48 5.65 217.93 5.45L217.93 5.45Q217.43 5.3 216.73 5.3L216.73 5.3Q215.83 5.3 215.33 5.8L215.33 5.8Q214.78 6.3 214.78 7L214.78 7Q214.78 7.55 214.98 7.95L214.98 7.95Q215.23 8.35 215.83 8.7L215.83 8.7Q216.43 9.1 217.63 9.55L217.63 9.55Q219.28 10.25 219.93 10.95L219.93 10.95Q220.53 11.7 220.53 12.8L220.53 12.8Q220.53 13.65 220.13 14.4L220.13 14.4Q219.68 15.15 218.83 15.65L218.83 15.65Q217.93 16.15 216.68 16.15Z" opacity="1" transform="matrix(1,0,0,1,0,0)" fill="#f5eafb" class="undefined-text-0" data-fill-palette-color="primary" id="text-0"></path></svg></g></svg></g></svg></g></svg></g></svg></g><g></g></svg></g><defs></defs></svg><rect width="395.52" height="79.19073684210527" fill="none" stroke="none" visibility="hidden"></rect></g></svg></g></svg>